HIERARCHY
ROOT Hips
{
	OFFSET 0.000000 0.000000 0.000000
	CHANNELS 6 Xposition Yposition Zposition Xrotation Yrotation Zrotation
	JOINT LeftUpLeg_virtual
	{
		OFFSET 0.000000 0.000000 0.000000
		CHANNELS 3 Xrotation Yrotation Zrotation
		JOINT LeftUpLeg
		{
			OFFSET 15.427100 -6.655098 0.678600
			CHANNELS 3 Xrotation Yrotation Zrotation
			JOINT LeftLeg
			{
				OFFSET 4.081073 -39.591068 13.024000
				CHANNELS 3 Xrotation Yrotation Zrotation
				JOINT LeftFoot
				{
					OFFSET -4.081074 -37.707932 -15.979700
					CHANNELS 3 Xrotation Yrotation Zrotation
					JOINT LeftToeBase
					{
						OFFSET 5.346399 -15.068900 20.645000
						CHANNELS 3 Xrotation Yrotation Zrotation
						JOINT LeftToe_End
						{
							OFFSET 2.754700 0.931300 11.300900
							CHANNELS 3 Xrotation Yrotation Zrotation
							End Site
							{
								OFFSET 0 0 0
							}
						}
					}
				}
			}
		}
	}
	JOINT RightUpLeg_virtual
	{
		OFFSET 0.000000 0.000000 0.000000
		CHANNELS 3 Xrotation Yrotation Zrotation
		JOINT RightUpLeg
		{
			OFFSET -15.569500 -6.655098 0.678600
			CHANNELS 3 Xrotation Yrotation Zrotation
			JOINT RightLeg
			{
				OFFSET -4.081825 -39.591045 13.023800
				CHANNELS 3 Xrotation Yrotation Zrotation
				JOINT RightFoot
				{
					OFFSET 4.081824 -37.707954 -15.979600
					CHANNELS 3 Xrotation Yrotation Zrotation
					JOINT RightToeBase
					{
						OFFSET -5.346400 -15.068900 20.645000
						CHANNELS 3 Xrotation Yrotation Zrotation
						JOINT RightToe_End
						{
							OFFSET -2.754700 0.931300 11.300900
							CHANNELS 3 Xrotation Yrotation Zrotation
							End Site
							{
								OFFSET 0 0 0
							}
						}
					}
				}
			}
		}
	}
	JOINT Spine_virtual
	{
		OFFSET 0.000000 0.000000 0.000000
		CHANNELS 3 Xrotation Yrotation Zrotation
		JOINT Spine
		{
			OFFSET -0.279200 12.230698 -2.892100
			CHANNELS 3 Xrotation Yrotation Zrotation
			JOINT Spine1
			{
				OFFSET -0.232667 10.192268 -1.242267
				CHANNELS 3 Xrotation Yrotation Zrotation
				JOINT Spine1_split
				{
					OFFSET -0.232667 10.192268 -1.242267
					CHANNELS 3 Xrotation Yrotation Zrotation
					JOINT Spine2
					{
						OFFSET -0.232667 10.192268 -1.242267
						CHANNELS 3 Xrotation Yrotation Zrotation
						JOINT Neck_virtual
						{
							OFFSET 0.000000 0.000000 0.000000
							CHANNELS 3 Xrotation Yrotation Zrotation
							JOINT Neck
							{
								OFFSET -0.418800 17.814194 8.416900
								CHANNELS 3 Xrotation Yrotation Zrotation
								JOINT Head
								{
									OFFSET 0.000000 7.031097 3.806800
									CHANNELS 3 Xrotation Yrotation Zrotation
									JOINT HeadTop_End
									{
										OFFSET 0.000000 24.646606 12.978600
										CHANNELS 3 Xrotation Yrotation Zrotation
										End Site
										{
											OFFSET 0 0 0
										}
									}
								}
							}
						}
						JOINT LeftShoulder_virtual
						{
							OFFSET 0.000000 0.000000 0.000000
							CHANNELS 3 Xrotation Yrotation Zrotation
							JOINT LeftShoulder
							{
								OFFSET 8.476499 7.247704 -3.868750
								CHANNELS 3 Xrotation Yrotation Zrotation
								JOINT LeftShoulder_split
								{
									OFFSET 8.476499 7.247704 -3.868750
									CHANNELS 3 Xrotation Yrotation Zrotation
									JOINT LeftArm
									{
										OFFSET 9.308998 -2.777710 0.208600
										CHANNELS 3 Xrotation Yrotation Zrotation
										JOINT LeftForeArm
										{
											OFFSET 29.972298 0.000000 0.000000
											CHANNELS 3 Xrotation Yrotation Zrotation
											JOINT LeftHand
											{
												OFFSET 26.026505 0.000000 0.000000
												CHANNELS 3 Xrotation Yrotation Zrotation
												End Site
												{
													OFFSET 0 0 0
												}
											}
										}
									}
								}
							}
						}
						JOINT RightShoulder_virtual
						{
							OFFSET 0.000000 0.000000 0.000000
							CHANNELS 3 Xrotation Yrotation Zrotation
							JOINT RightShoulder
							{
								OFFSET -7.570500 7.247704 -3.868750
								CHANNELS 3 Xrotation Yrotation Zrotation
								JOINT RightShoulder_split
								{
									OFFSET -7.570500 7.247704 -3.868750
									CHANNELS 3 Xrotation Yrotation Zrotation
									JOINT RightArm
									{
										OFFSET -9.308998 -2.777710 0.208500
										CHANNELS 3 Xrotation Yrotation Zrotation
										JOINT RightForeArm
										{
											OFFSET -29.972300 0.000000 0.000000
											CHANNELS 3 Xrotation Yrotation Zrotation
											JOINT RightHand
											{
												OFFSET -26.026505 0.000000 0.000000
												CHANNELS 3 Xrotation Yrotation Zrotation
												End Site
												{
													OFFSET 0 0 0
												}
											}
										}
									}
								}
							}
						}
					}
				}
			}
		}
	}
}
MOTION
Frames: 4
Frame Time: 0.03333333
-0.874847 96.125221 11.486491 0.000000 0.000000 0.000000 -17.306227 -16.281317 -3.283171 -74.852439 18.306539 38.733142 106.784291 -17.904999 -6.745182 -41.057015 -13.151577 29.662938 -44.468636 -2.874575 -5.908400 0.000000 0.000000 0.000000 -16.965092 -20.823701 -3.897197 -105.949751 -10.483033 -23.536009 110.244970 19.407059 4.656108 -5.741114 -6.028137 0.040921 -44.359931 6.920951 9.684685 0.000000 0.000000 0.000000 -12.790041 -18.349925 -3.915516 5.234186 7.292360 -1.711426 13.433917 0.705280 -1.189752 -0.397217 -9.747131 1.616695 0.000000 0.000000 0.000000 19.216828 0.354683 -0.260316 -24.597647 0.268452 -3.522005 -9.473268 8.644811 3.250439 0.000000 0.000000 0.000000 14.732742 0.622165 -0.724683 0.732593 -2.595261 36.300693 1.240661 -2.178217 -0.911141 -46.706206 -30.383509 -7.756245 -18.006670 -38.083338 0.615856 0.000000 0.000000 0.000000 15.302414 0.055288 -0.743912 10.617399 18.186799 -37.470643 5.596494 4.055364 -0.885606 -53.467418 23.300818 10.221839 -16.823384 37.402403 7.108245 0.000000 0.000000 0.000000 
-1.239650 95.116119 11.049610 0.000000 0.000000 0.000000 -18.795494 -16.514260 -3.265851 -77.073842 17.747881 38.270841 108.446766 -17.933114 -6.109227 -39.436843 -12.434610 28.246970 -45.828353 -3.214656 -5.349507 0.000000 0.000000 0.000000 -18.756461 -20.143812 -4.021586 -105.491951 -10.306566 -24.011624 110.939163 19.064666 4.987881 -6.078471 -5.775492 1.488820 -47.325298 6.585313 9.957078 0.000000 0.000000 0.000000 -14.744560 -17.830965 -4.074344 5.621909 6.863356 -1.463883 13.414260 0.684290 -1.027422 0.671774 -7.000021 2.572812 0.000000 0.000000 0.000000 18.855398 0.246418 -0.122528 -23.769147 0.431465 -3.124539 -9.224766 9.548743 3.301597 0.000000 0.000000 0.000000 14.937817 0.523810 -0.347237 0.646441 -2.681646 36.848174 -0.818842 -1.644454 0.514239 -49.431810 -29.777067 -6.896709 -18.071596 -36.007596 1.604685 0.000000 0.000000 0.000000 14.777884 -0.138842 -0.749179 10.649382 19.421535 -37.287785 5.446693 0.541107 -0.442653 -56.267839 21.529461 11.156554 -19.317993 40.110600 8.836262 0.000000 0.000000 0.000000 
-1.638499 94.314201 10.492701 0.000000 0.000000 0.000000 -20.518658 -16.267386 -3.064995 -79.073045 17.329612 37.577652 110.128085 -17.673338 -4.676354 -36.048810 -11.357520 25.869080 -48.452153 -3.657659 -4.853275 0.000000 0.000000 0.000000 -21.068442 -18.789106 -3.881867 -103.839844 -9.367056 -24.986476 111.846882 18.170374 4.677206 -6.112500 -4.820910 2.000294 -48.550993 6.226823 10.882134 0.000000 0.000000 0.000000 -17.041062 -17.012570 -4.468120 6.169227 6.046891 -1.238911 12.948370 0.497654 -0.661505 4.169897 -4.879987 3.081312 0.000000 0.000000 0.000000 17.765209 0.100127 0.112966 -23.330850 0.479827 -2.078458 -9.296107 10.144744 2.798174 0.000000 0.000000 0.000000 14.097388 0.329820 0.141733 0.750969 -3.169445 37.907444 -1.303999 -1.844332 1.609818 -53.583012 -27.634730 -8.659955 -17.968558 -36.076171 2.546478 0.000000 0.000000 0.000000 13.388421 -0.395954 -0.529552 10.278968 20.625658 -36.782307 5.253279 -2.395957 0.641328 -57.236876 20.350101 11.204449 -22.363236 42.523651 9.952238 0.000000 0.000000 0.000000 
-1.683224 94.255920 9.763859 0.000000 0.000000 0.000000 -22.502740 -15.545287 -2.747633 -79.823369 17.410948 36.918641 110.285050 -16.886429 -3.496782 -32.437781 -10.013386 23.511350 -50.371416 -3.848656 -5.045993 0.000000 0.000000 0.000000 -23.488090 -16.816815 -3.570395 -100.315262 -8.237545 -26.062219 111.780704 16.679853 3.940436 -6.373705 -3.481045 0.972451 -49.159556 5.943073 12.226014 0.000000 0.000000 0.000000 -19.507596 -16.224956 -5.016301 7.071752 5.075010 -0.991420 12.456231 0.226809 -0.225948 6.329017 -1.891744 2.254575 0.000000 0.000000 0.000000 16.425164 -0.037180 0.362296 -23.522497 0.255788 -0.606942 -9.656492 10.408411 1.844071 0.000000 0.000000 0.000000 13.013091 0.063955 0.647169 1.051266 -3.919048 38.841773 -0.761521 -2.154082 2.470164 -57.753723 -24.351170 -12.518711 -17.769992 -37.195438 3.432097 0.000000 0.000000 0.000000 11.870275 -0.619103 -0.120131 9.800276 21.763853 -36.230435 4.731003 -3.310252 1.479306 -56.270756 19.917520 11.464643 -24.813789 44.712720 9.883809 0.000000 0.000000 0.000000 
